<?xml version="1.0" standalone="no"?>
<!DOCTYPE svg PUBLIC "-//W3C//DTD SVG 20010904//EN"
 "http://www.w3.org/TR/2001/REC-SVG-20010904/DTD/svg10.dtd">
<svg version="1.0" xmlns="http://www.w3.org/2000/svg"
 width="600.000000pt" height="600.000000pt" viewBox="0 0 600.000000 600.000000"
 preserveAspectRatio="xMidYMid meet">
<metadata>
Created by potrace 1.11, written by Peter Selinger 2001-2013
</metadata>
<g transform="translate(0.000000,600.000000) scale(0.100000,-0.100000)"
fill="#000000" stroke="none">
<path d="M5199 5846 c-2 -2 -26 -6 -54 -9 -61 -6 -197 -40 -268 -68 -146 -55
-306 -156 -546 -343 -80 -63 -155 -123 -166 -133 -11 -10 -61 -52 -110 -93
-50 -41 -97 -81 -106 -90 -55 -51 5 -47 -849 -48 l-793 0 -156 127 c-86 69
-170 136 -186 148 -241 184 -389 273 -510 308 -84 24 -90 25 -186 31 -146 10
-288 -22 -404 -90 -42 -25 -105 -88 -105 -106 0 -25 -17 -11 -217 180 -112
107 -144 124 -201 106 -31 -9 -132 -108 -132 -128 0 -5 -9 -27 -19 -51 -23
-48 -47 -132 -56 -195 -11 -69 -13 -217 -4 -274 23 -147 27 -164 55 -248 60
-177 161 -341 386 -622 125 -155 165 -203 295 -350 l51 -58 0 -815 0 -815
-130 -162 c-307 -382 -402 -534 -448 -716 -29 -112 -33 -247 -11 -345 19 -81
64 -185 101 -235 l36 -47 -97 -100 c-116 -119 -134 -141 -143 -177 -15 -61 54
-148 153 -194 31 -14 65 -30 76 -35 58 -27 204 -46 330 -44 72 2 141 6 155 9
14 3 50 11 80 17 167 34 344 123 555 277 118 86 311 238 355 279 19 18 40 33
45 34 6 1 423 2 927 3 l917 1 58 -48 c113 -94 363 -278 459 -337 167 -102 307
-142 479 -136 105 4 195 26 284 69 70 34 151 103 151 130 0 9 2 17 5 17 3 0
51 -44 108 -98 179 -173 201 -191 234 -198 18 -3 44 -3 58 0 40 10 99 70 132
133 97 185 113 412 49 692 -44 195 -162 390 -447 741 -110 136 -133 162 -195
232 l-24 28 0 911 0 912 25 33 c14 19 42 51 60 71 19 21 35 41 35 45 0 4 6 13
13 20 24 23 163 213 219 299 92 140 135 238 158 359 11 58 14 215 5 265 -19
104 -64 210 -117 278 -36 45 -48 25 122 199 147 152 155 167 136 243 -15 59
-164 160 -266 180 -3 1 -18 4 -35 8 -16 4 -41 10 -55 13 -30 7 -265 16 -271
10z m-2279 -2291 c313 -7 551 -12 622 -14 l26 -1 -4 -272 c-2 -150 -5 -398 -6
-550 -3 -270 -4 -278 -23 -279 -11 -1 -23 -1 -26 -1 -4 1 -154 4 -335 7 -181
4 -392 8 -469 10 -77 2 -170 4 -207 4 l-68 1 6 423 c3 232 6 478 7 547 1 69 5
127 8 130 4 3 34 4 66 3 32 -1 213 -5 403 -8z"/>
</g>
</svg>
