<?xml version="1.0" encoding="UTF-8" standalone="no"?>
<svg
   xmlns:dc="http://purl.org/dc/elements/1.1/"
   xmlns:cc="http://creativecommons.org/ns#"
   xmlns:rdf="http://www.w3.org/1999/02/22-rdf-syntax-ns#"
   xmlns:svg="http://www.w3.org/2000/svg"
   xmlns="http://www.w3.org/2000/svg"
   version="1.1"
   id="svg4244"
   viewBox="0 0 600.00001 600.00001"
   height="600"
   width="600">
  <defs
     id="defs4246" />
  <metadata
     id="metadata4249">
    <rdf:RDF>
      <cc:Work
         rdf:about="">
        <dc:format>image/svg+xml</dc:format>
        <dc:type
           rdf:resource="http://purl.org/dc/dcmitype/StillImage" />
        <dc:title></dc:title>
      </cc:Work>
    </rdf:RDF>
  </metadata>
  <g
     transform="translate(0,-452.36214)"
     id="layer1">
    <g
       id="g4858"
       transform="matrix(10.272146,0,0,10.272146,-676.49581,-1873.1983)">
      <path
         style="opacity:1;fill:#d89a35;fill-opacity:1;fill-rule:evenodd;stroke:#ffffff;stroke-width:1.10000002;stroke-linecap:butt;stroke-linejoin:miter;stroke-miterlimit:4;stroke-dasharray:none;stroke-opacity:1"
         d="m 79.13768,262.41305 0,-12.12183 6.31345,6.43972 z"
         id="path3347" />
      <path
         id="path3349"
         d="m 90.822552,239.83325 12.121828,0 -6.439718,6.31345 z"
         style="opacity:1;fill:#d89a35;fill-opacity:1;fill-rule:evenodd;stroke:#ffffff;stroke-width:1.10000002;stroke-linecap:butt;stroke-linejoin:miter;stroke-miterlimit:4;stroke-dasharray:none;stroke-opacity:1" />
      <path
         style="opacity:1;fill:#d89a35;fill-opacity:1;fill-rule:evenodd;stroke:#ffffff;stroke-width:1.10000002;stroke-linecap:butt;stroke-linejoin:miter;stroke-miterlimit:4;stroke-dasharray:none;stroke-opacity:1"
         d="m 100.40051,272.65956 -12.121828,0 6.43972,-6.31345 z"
         id="path3351" />
      <path
         id="path3353"
         d="m 111.66938,262.56919 0,-12.12183 -6.31345,6.43972 z"
         style="opacity:1;fill:#d89a35;fill-opacity:1;fill-rule:evenodd;stroke:#ffffff;stroke-width:1.10000002;stroke-linecap:butt;stroke-linejoin:miter;stroke-miterlimit:4;stroke-dasharray:none;stroke-opacity:1" />
      <path
         style="opacity:1;fill:#812b2e;fill-opacity:1;fill-rule:evenodd;stroke:#ffffff;stroke-width:1.10000002;stroke-linecap:butt;stroke-linejoin:miter;stroke-miterlimit:4;stroke-dasharray:none;stroke-opacity:1"
         d="m 90.002667,260.1738 0.141599,-11.11742 c 0,0 -14.807993,-13.99286 -15.577468,-14.75211 -0.769475,-0.75925 -2.894253,2.86532 -0.861407,7.32795 2.032845,4.46264 16.297276,18.54158 16.297276,18.54158 z"
         id="path3357" />
      <path
         id="path3368"
         d="m 99.726635,260.609 -11.11608,-0.22321 c 0,0 -14.10119,14.70487 -14.86607,15.46875 -0.76488,0.76388 2.84399,2.91521 7.32143,0.91518 4.47744,-2.00003 18.66072,-16.16072 18.66072,-16.16072 z"
         style="opacity:1;fill:#812b2e;fill-opacity:1;fill-rule:evenodd;stroke:#ffffff;stroke-width:1.10000002;stroke-linecap:butt;stroke-linejoin:miter;stroke-miterlimit:4;stroke-dasharray:none;stroke-opacity:1" />
      <path
         style="opacity:1;fill:#812b2e;fill-opacity:1;fill-rule:evenodd;stroke:#ffffff;stroke-width:1.10000002;stroke-linecap:butt;stroke-linejoin:miter;stroke-miterlimit:4;stroke-dasharray:none;stroke-opacity:1"
         d="m 100.099,251.50313 -0.129975,11.11757 c 0,0 14.822615,13.97736 15.592885,14.73581 0.77027,0.75845 2.89125,-2.86834 0.85374,-7.32885 -2.03751,-4.46051 -16.31665,-18.52453 -16.31665,-18.52453 z"
         id="path3370" />
      <path
         id="path3372"
         d="m 90.875413,250.59099 11.116087,0.22321 c 0,0 14.10119,-14.70487 14.86607,-15.46875 0.76488,-0.76388 -2.84399,-2.91521 -7.32143,-0.91518 -4.47744,2.00003 -18.660727,16.16072 -18.660727,16.16072 z"
         style="opacity:1;fill:#812b2e;fill-opacity:1;fill-rule:evenodd;stroke:#ffffff;stroke-width:1.10000002;stroke-linecap:butt;stroke-linejoin:miter;stroke-miterlimit:4;stroke-dasharray:none;stroke-opacity:1" />
      <path
         id="path3374"
         d="m 95.219338,245.03445 -4.19586,4.46757 c 0,0 -13.065668,-12.60792 -13.225598,-13.13059 -0.15993,-0.52268 2.348494,-2.2097 5.365324,-1.01312 3.016818,1.19657 12.056134,9.67614 12.056134,9.67614 z"
         style="opacity:1;fill:#76446f;fill-opacity:1;fill-rule:evenodd;stroke:#ffffff;stroke-width:1.10000002;stroke-linecap:butt;stroke-linejoin:miter;stroke-miterlimit:4;stroke-dasharray:none;stroke-opacity:1" />
      <path
         style="opacity:1;fill:#76446f;fill-opacity:1;fill-rule:evenodd;stroke:#ffffff;stroke-width:1.10000002;stroke-linecap:butt;stroke-linejoin:miter;stroke-miterlimit:4;stroke-dasharray:none;stroke-opacity:1"
         d="m 94.98212,266.70985 4.195858,-4.46757 c 0,0 13.065672,12.60792 13.225602,13.13059 0.15993,0.52268 -2.34849,2.20969 -5.36533,1.01312 -3.01681,-1.19657 -12.05613,-9.67614 -12.05613,-9.67614 z"
         id="path3385" />
      <path
         id="path3387"
         d="m 105.73582,255.63105 -4.46757,-4.19586 c 0,0 12.60791,-13.06567 13.13059,-13.2256 0.52269,-0.15993 2.20969,2.34849 1.01312,5.36533 -1.19658,3.01681 -9.67614,12.05613 -9.67614,12.05613 z"
         style="opacity:1;fill:#76446f;fill-opacity:1;fill-rule:evenodd;stroke:#ffffff;stroke-width:1.10000002;stroke-linecap:butt;stroke-linejoin:miter;stroke-miterlimit:4;stroke-dasharray:none;stroke-opacity:1" />
      <path
         id="path3389"
         d="m 84.449255,256.09089 4.46757,4.19587 c 0,0 -12.607914,13.06566 -13.130592,13.22559 -0.522677,0.15993 -2.209688,-2.34849 -1.013114,-5.36533 1.196575,-3.01681 9.676136,-12.05613 9.676136,-12.05613 z"
         style="opacity:1;fill:#76446f;fill-opacity:1;fill-rule:evenodd;stroke:#ffffff;stroke-width:1.10000002;stroke-linecap:butt;stroke-linejoin:miter;stroke-miterlimit:4;stroke-dasharray:none;stroke-opacity:1" />
    </g>
  </g>
</svg>
